<?xml version="1.0" encoding="utf-8" standalone="no"?>
<!DOCTYPE svg PUBLIC "-//W3C//DTD SVG 1.1//EN"
  "http://www.w3.org/Graphics/SVG/1.1/DTD/svg11.dtd">
<svg xmlns:xlink="http://www.w3.org/1999/xlink" width="465.543384pt" height="356.415247pt" viewBox="0 0 465.543384 356.415247" xmlns="http://www.w3.org/2000/svg" version="1.1">
 <metadata>
  <rdf:RDF xmlns:dc="http://purl.org/dc/elements/1.1/" xmlns:cc="http://creativecommons.org/ns#" xmlns:rdf="http://www.w3.org/1999/02/22-rdf-syntax-ns#">
   <cc:Work>
    <dc:type rdf:resource="http://purl.org/dc/dcmitype/StillImage"/>
    <dc:date>2026-04-15T16:50:46.721269</dc:date>
    <dc:format>image/svg+xml</dc:format>
    <dc:creator>
     <cc:Agent>
      <dc:title>Matplotlib v3.10.8, https://matplotlib.org/</dc:title>
     </cc:Agent>
    </dc:creator>
   </cc:Work>
  </rdf:RDF>
 </metadata>
 <defs>
  <style type="text/css">*{stroke-linejoin: round; stroke-linecap: butt}</style>
 </defs>
 <g id="figure_1">
  <g id="patch_1">
   <path d="M 0 356.415247 
L 465.543384 356.415247 
L 465.543384 0 
L 0 0 
z
" style="fill: #ffffff"/>
  </g>
  <g id="axes_1">
   <g id="patch_2">
    <path d="M 57.952172 160.008018 
L 390.592172 160.008018 
L 390.592172 42.562 
L 57.952172 42.562 
z
" style="fill: #ffffff"/>
   </g>
   <g id="matplotlib.axis_1">
    <g id="xtick_1">
     <g id="line2d_1">
      <path d="M 57.952172 160.008018 
L 57.952172 42.562 
" clip-path="url(#p01572695cc)" style="fill: none; stroke: #d8d8d8; stroke-opacity: 0.75; stroke-width: 0.45; stroke-linecap: square"/>
     </g>
     <g id="line2d_2">
      <defs>
       <path id="m63811fda01" d="M 0 0 
L 0 3.5 
" style="stroke: #000000; stroke-width: 0.8"/>
      </defs>
      <g>
       <use xlink:href="#m63811fda01" x="57.952172" y="160.008018" style="stroke: #000000; stroke-width: 0.8"/>
      </g>
     </g>
    </g>
    <g id="xtick_2">
     <g id="line2d_3">
      <path d="M 107.990811 160.008018 
L 107.990811 42.562 
" clip-path="url(#p01572695cc)" style="fill: none; stroke: #d8d8d8; stroke-opacity: 0.75; stroke-width: 0.45; stroke-linecap: square"/>
     </g>
     <g id="line2d_4">
      <g>
       <use xlink:href="#m63811fda01" x="107.990811" y="160.008018" style="stroke: #000000; stroke-width: 0.8"/>
      </g>
     </g>
    </g>
    <g id="xtick_3">
     <g id="line2d_5">
      <path d="M 158.02945 160.008018 
L 158.02945 42.562 
" clip-path="url(#p01572695cc)" style="fill: none; stroke: #d8d8d8; stroke-opacity: 0.75; stroke-width: 0.45; stroke-linecap: square"/>
     </g>
     <g id="line2d_6">
      <g>
       <use xlink:href="#m63811fda01" x="158.02945" y="160.008018" style="stroke: #000000; stroke-width: 0.8"/>
      </g>
     </g>
    </g>
    <g id="xtick_4">
     <g id="line2d_7">
      <path d="M 208.068089 160.008018 
L 208.068089 42.562 
" clip-path="url(#p01572695cc)" style="fill: none; stroke: #d8d8d8; stroke-opacity: 0.75; stroke-width: 0.45; stroke-linecap: square"/>
     </g>
     <g id="line2d_8">
      <g>
       <use xlink:href="#m63811fda01" x="208.068089" y="160.008018" style="stroke: #000000; stroke-width: 0.8"/>
      </g>
     </g>
    </g>
    <g id="xtick_5">
     <g id="line2d_9">
      <path d="M 258.106729 160.008018 
L 258.106729 42.562 
" clip-path="url(#p01572695cc)" style="fill: none; stroke: #d8d8d8; stroke-opacity: 0.75; stroke-width: 0.45; stroke-linecap: square"/>
     </g>
     <g id="line2d_10">
      <g>
       <use xlink:href="#m63811fda01" x="258.106729" y="160.008018" style="stroke: #000000; stroke-width: 0.8"/>
      </g>
     </g>
    </g>
    <g id="xtick_6">
     <g id="line2d_11">
      <path d="M 308.145368 160.008018 
L 308.145368 42.562 
" clip-path="url(#p01572695cc)" style="fill: none; stroke: #d8d8d8; stroke-opacity: 0.75; stroke-width: 0.45; stroke-linecap: square"/>
     </g>
     <g id="line2d_12">
      <g>
       <use xlink:href="#m63811fda01" x="308.145368" y="160.008018" style="stroke: #000000; stroke-width: 0.8"/>
      </g>
     </g>
    </g>
    <g id="xtick_7">
     <g id="line2d_13">
      <path d="M 358.184007 160.008018 
L 358.184007 42.562 
" clip-path="url(#p01572695cc)" style="fill: none; stroke: #d8d8d8; stroke-opacity: 0.75; stroke-width: 0.45; stroke-linecap: square"/>
     </g>
     <g id="line2d_14">
      <g>
       <use xlink:href="#m63811fda01" x="358.184007" y="160.008018" style="stroke: #000000; stroke-width: 0.8"/>
      </g>
     </g>
    </g>
   </g>
   <g id="matplotlib.axis_2">
    <g id="ytick_1">
     <g id="line2d_15">
      <path d="M 57.952172 52.291256 
L 390.592172 52.291256 
" clip-path="url(#p01572695cc)" style="fill: none; stroke: #d8d8d8; stroke-opacity: 0.75; stroke-width: 0.45; stroke-linecap: square"/>
     </g>
     <g id="line2d_16">
      <defs>
       <path id="mfa871eb0bf" d="M 0 0 
L -3.5 0 
" style="stroke: #000000; stroke-width: 0.8"/>
      </defs>
      <g>
       <use xlink:href="#mfa871eb0bf" x="57.952172" y="52.291256" style="stroke: #000000; stroke-width: 0.8"/>
      </g>
     </g>
     <g id="text_1">
      <text style="font-size: 8.4px; font-family: 'Times New Roman', 'DejaVu Serif', 'Computer Modern Roman', serif; text-anchor: end" x="50.952172" y="55.199756" transform="rotate(-0 50.952172 55.199756)">1 - Type A</text>
     </g>
    </g>
    <g id="ytick_2">
     <g id="line2d_17">
      <path d="M 57.952172 66.190193 
L 390.592172 66.190193 
" clip-path="url(#p01572695cc)" style="fill: none; stroke: #d8d8d8; stroke-opacity: 0.75; stroke-width: 0.45; stroke-linecap: square"/>
     </g>
     <g id="line2d_18">
      <g>
       <use xlink:href="#mfa871eb0bf" x="57.952172" y="66.190193" style="stroke: #000000; stroke-width: 0.8"/>
      </g>
     </g>
     <g id="text_2">
      <text style="font-size: 8.4px; font-family: 'Times New Roman', 'DejaVu Serif', 'Computer Modern Roman', serif; text-anchor: end" x="50.952172" y="69.098693" transform="rotate(-0 50.952172 69.098693)">2 - Type B</text>
     </g>
    </g>
    <g id="ytick_3">
     <g id="line2d_19">
      <path d="M 57.952172 80.08913 
L 390.592172 80.08913 
" clip-path="url(#p01572695cc)" style="fill: none; stroke: #d8d8d8; stroke-opacity: 0.75; stroke-width: 0.45; stroke-linecap: square"/>
     </g>
     <g id="line2d_20">
      <g>
       <use xlink:href="#mfa871eb0bf" x="57.952172" y="80.08913" style="stroke: #000000; stroke-width: 0.8"/>
      </g>
     </g>
     <g id="text_3">
      <text style="font-size: 8.4px; font-family: 'Times New Roman', 'DejaVu Serif', 'Computer Modern Roman', serif; text-anchor: end" x="50.952172" y="82.99763" transform="rotate(-0 50.952172 82.99763)">3 - Type A</text>
     </g>
    </g>
    <g id="ytick_4">
     <g id="line2d_21">
      <path d="M 57.952172 93.988067 
L 390.592172 93.988067 
" clip-path="url(#p01572695cc)" style="fill: none; stroke: #d8d8d8; stroke-opacity: 0.75; stroke-width: 0.45; stroke-linecap: square"/>
     </g>
     <g id="line2d_22">
      <g>
       <use xlink:href="#mfa871eb0bf" x="57.952172" y="93.988067" style="stroke: #000000; stroke-width: 0.8"/>
      </g>
     </g>
     <g id="text_4">
      <text style="font-size: 8.4px; font-family: 'Times New Roman', 'DejaVu Serif', 'Computer Modern Roman', serif; text-anchor: end" x="50.952172" y="96.896567" transform="rotate(-0 50.952172 96.896567)">4 - Type B</text>
     </g>
    </g>
    <g id="ytick_5">
     <g id="line2d_23">
      <path d="M 57.952172 107.887004 
L 390.592172 107.887004 
" clip-path="url(#p01572695cc)" style="fill: none; stroke: #d8d8d8; stroke-opacity: 0.75; stroke-width: 0.45; stroke-linecap: square"/>
     </g>
     <g id="line2d_24">
      <g>
       <use xlink:href="#mfa871eb0bf" x="57.952172" y="107.887004" style="stroke: #000000; stroke-width: 0.8"/>
      </g>
     </g>
     <g id="text_5">
      <text style="font-size: 8.4px; font-family: 'Times New Roman', 'DejaVu Serif', 'Computer Modern Roman', serif; text-anchor: end" x="50.952172" y="110.795504" transform="rotate(-0 50.952172 110.795504)">5 - Type C</text>
     </g>
    </g>
    <g id="ytick_6">
     <g id="line2d_25">
      <path d="M 57.952172 121.785941 
L 390.592172 121.785941 
" clip-path="url(#p01572695cc)" style="fill: none; stroke: #d8d8d8; stroke-opacity: 0.75; stroke-width: 0.45; stroke-linecap: square"/>
     </g>
     <g id="line2d_26">
      <g>
       <use xlink:href="#mfa871eb0bf" x="57.952172" y="121.785941" style="stroke: #000000; stroke-width: 0.8"/>
      </g>
     </g>
     <g id="text_6">
      <text style="font-size: 8.4px; font-family: 'Times New Roman', 'DejaVu Serif', 'Computer Modern Roman', serif; text-anchor: end" x="50.952172" y="124.694441" transform="rotate(-0 50.952172 124.694441)">6 - Type A</text>
     </g>
    </g>
    <g id="ytick_7">
     <g id="line2d_27">
      <path d="M 57.952172 135.684878 
L 390.592172 135.684878 
" clip-path="url(#p01572695cc)" style="fill: none; stroke: #d8d8d8; stroke-opacity: 0.75; stroke-width: 0.45; stroke-linecap: square"/>
     </g>
     <g id="line2d_28">
      <g>
       <use xlink:href="#mfa871eb0bf" x="57.952172" y="135.684878" style="stroke: #000000; stroke-width: 0.8"/>
      </g>
     </g>
     <g id="text_7">
      <text style="font-size: 8.4px; font-family: 'Times New Roman', 'DejaVu Serif', 'Computer Modern Roman', serif; text-anchor: end" x="50.952172" y="138.593378" transform="rotate(-0 50.952172 138.593378)">7 - Type B</text>
     </g>
    </g>
    <g id="ytick_8">
     <g id="line2d_29">
      <path d="M 57.952172 149.583815 
L 390.592172 149.583815 
" clip-path="url(#p01572695cc)" style="fill: none; stroke: #d8d8d8; stroke-opacity: 0.75; stroke-width: 0.45; stroke-linecap: square"/>
     </g>
     <g id="line2d_30">
      <g>
       <use xlink:href="#mfa871eb0bf" x="57.952172" y="149.583815" style="stroke: #000000; stroke-width: 0.8"/>
      </g>
     </g>
     <g id="text_8">
      <text style="font-size: 8.4px; font-family: 'Times New Roman', 'DejaVu Serif', 'Computer Modern Roman', serif; text-anchor: end" x="50.952172" y="152.492315" transform="rotate(-0 50.952172 152.492315)">8 - Type C</text>
     </g>
    </g>
    <g id="text_9">
     <text style="font-size: 9.5px; font-family: 'Times New Roman', 'DejaVu Serif', 'Computer Modern Roman', serif; text-anchor: middle" x="9.476563" y="101.285009" transform="rotate(-90 9.476563 101.285009)">Vessel order / type</text>
    </g>
   </g>
   <g id="patch_3">
    <path d="M 69.96643 48.260564 
L 269.722189 48.260564 
L 269.722189 56.321948 
L 69.96643 56.321948 
z
" clip-path="url(#p01572695cc)" style="fill: #e5e2de; stroke: #b8b8b8; stroke-width: 0.6; stroke-linejoin: miter"/>
   </g>
   <g id="patch_4">
    <path d="M 283.126048 50.345405 
L 290.631844 50.345405 
L 290.631844 54.237107 
L 283.126048 54.237107 
z
" clip-path="url(#p01572695cc)" style="fill: #e5988a; opacity: 0.18; stroke: #e5988a; stroke-width: 0.6; stroke-linejoin: miter"/>
   </g>
   <g id="patch_5">
    <path d="M 269.722189 50.345405 
L 290.631844 50.345405 
L 290.631844 54.237107 
L 269.722189 54.237107 
z
" clip-path="url(#p01572695cc)" style="fill: url(#ha04f8ebaf2); opacity: 0.32; stroke: #e5988a; stroke-width: 0.6; stroke-linejoin: miter"/>
   </g>
   <g id="patch_6">
    <path d="M 79.966721 62.159501 
L 263.059771 62.159501 
L 263.059771 70.220885 
L 79.966721 70.220885 
z
" clip-path="url(#p01572695cc)" style="fill: #e5e2de; stroke: #b8b8b8; stroke-width: 0.6; stroke-linejoin: miter"/>
   </g>
   <g id="patch_7">
    <path d="M 265.612524 64.244342 
L 320.655027 64.244342 
L 320.655027 68.136044 
L 265.612524 68.136044 
z
" clip-path="url(#p01572695cc)" style="fill: #7aa974; opacity: 0.18; stroke: #7aa974; stroke-width: 0.6; stroke-linejoin: miter"/>
   </g>
   <g id="patch_8">
    <path d="M 263.059771 64.244342 
L 320.655027 64.244342 
L 320.655027 68.136044 
L 263.059771 68.136044 
z
" clip-path="url(#p01572695cc)" style="fill: url(#h6b1d0cac98); opacity: 0.32; stroke: #7aa974; stroke-width: 0.6; stroke-linejoin: miter"/>
   </g>
   <g id="patch_9">
    <path d="M 91.801083 76.058438 
L 170.679833 76.058438 
L 170.679833 84.119822 
L 91.801083 84.119822 
z
" clip-path="url(#p01572695cc)" style="fill: #e5e2de; stroke: #b8b8b8; stroke-width: 0.6; stroke-linejoin: miter"/>
   </g>
   <g id="patch_10">
    <path d="M 218.075817 78.143279 
L 225.581613 78.143279 
L 225.581613 82.034981 
L 218.075817 82.034981 
z
" clip-path="url(#p01572695cc)" style="fill: #e5988a; opacity: 0.18; stroke: #e5988a; stroke-width: 0.6; stroke-linejoin: miter"/>
   </g>
   <g id="patch_11">
    <path d="M 170.679833 78.143279 
L 225.581613 78.143279 
L 225.581613 82.034981 
L 170.679833 82.034981 
z
" clip-path="url(#p01572695cc)" style="fill: url(#ha04f8ebaf2); opacity: 0.32; stroke: #e5988a; stroke-width: 0.6; stroke-linejoin: miter"/>
   </g>
   <g id="patch_12">
    <path d="M 92.589382 89.957375 
L 319.123349 89.957375 
L 319.123349 98.018759 
L 92.589382 98.018759 
z
" clip-path="url(#p01572695cc)" style="fill: #e5e2de; stroke: #b8b8b8; stroke-width: 0.6; stroke-linejoin: miter"/>
   </g>
   <g id="patch_13">
    <path d="M 320.655027 92.042216 
L 363.187871 92.042216 
L 363.187871 95.933918 
L 320.655027 95.933918 
z
" clip-path="url(#p01572695cc)" style="fill: #7aa974; opacity: 0.18; stroke: #7aa974; stroke-width: 0.6; stroke-linejoin: miter"/>
   </g>
   <g id="patch_14">
    <path d="M 319.123349 92.042216 
L 363.187871 92.042216 
L 363.187871 95.933918 
L 319.123349 95.933918 
z
" clip-path="url(#p01572695cc)" style="fill: url(#h6b1d0cac98); opacity: 0.32; stroke: #7aa974; stroke-width: 0.6; stroke-linejoin: miter"/>
   </g>
   <g id="patch_15">
    <path d="M 102.968186 103.856312 
L 255.077518 103.856312 
L 255.077518 111.917696 
L 102.968186 111.917696 
z
" clip-path="url(#p01572695cc)" style="fill: #e5e2de; stroke: #b8b8b8; stroke-width: 0.6; stroke-linejoin: miter"/>
   </g>
   <g id="patch_16">
    <path d="M 255.604797 105.941153 
L 263.110592 105.941153 
L 263.110592 109.832855 
L 255.604797 109.832855 
z
" clip-path="url(#p01572695cc)" style="fill: #e5988a; opacity: 0.18; stroke: #e5988a; stroke-width: 0.6; stroke-linejoin: miter"/>
   </g>
   <g id="patch_17">
    <path d="M 255.077518 105.941153 
L 263.110592 105.941153 
L 263.110592 109.832855 
L 255.077518 109.832855 
z
" clip-path="url(#p01572695cc)" style="fill: url(#ha04f8ebaf2); opacity: 0.32; stroke: #e5988a; stroke-width: 0.6; stroke-linejoin: miter"/>
   </g>
   <g id="patch_18">
    <path d="M 108.646069 117.755249 
L 328.016405 117.755249 
L 328.016405 125.816633 
L 108.646069 125.816633 
z
" clip-path="url(#p01572695cc)" style="fill: #e5e2de; stroke: #b8b8b8; stroke-width: 0.6; stroke-linejoin: miter"/>
   </g>
   <g id="patch_19">
    <path d="M 330.662755 119.84009 
L 338.168551 119.84009 
L 338.168551 123.731792 
L 330.662755 123.731792 
z
" clip-path="url(#p01572695cc)" style="fill: #e5988a; opacity: 0.18; stroke: #e5988a; stroke-width: 0.6; stroke-linejoin: miter"/>
   </g>
   <g id="patch_20">
    <path d="M 328.016405 119.84009 
L 338.168551 119.84009 
L 338.168551 123.731792 
L 328.016405 123.731792 
z
" clip-path="url(#p01572695cc)" style="fill: url(#ha04f8ebaf2); opacity: 0.32; stroke: #e5988a; stroke-width: 0.6; stroke-linejoin: miter"/>
   </g>
   <g id="patch_21">
    <path d="M 110.587457 131.654186 
L 204.365334 131.654186 
L 204.365334 139.71557 
L 110.587457 139.71557 
z
" clip-path="url(#p01572695cc)" style="fill: #e5e2de; stroke: #b8b8b8; stroke-width: 0.6; stroke-linejoin: miter"/>
   </g>
   <g id="patch_22">
    <path d="M 213.071953 133.739027 
L 255.604797 133.739027 
L 255.604797 137.630729 
L 213.071953 137.630729 
z
" clip-path="url(#p01572695cc)" style="fill: #7aa974; opacity: 0.18; stroke: #7aa974; stroke-width: 0.6; stroke-linejoin: miter"/>
   </g>
   <g id="patch_23">
    <path d="M 204.365334 133.739027 
L 255.604797 133.739027 
L 255.604797 137.630729 
L 204.365334 137.630729 
z
" clip-path="url(#p01572695cc)" style="fill: url(#h6b1d0cac98); opacity: 0.32; stroke: #7aa974; stroke-width: 0.6; stroke-linejoin: miter"/>
   </g>
   <g id="patch_24">
    <path d="M 111.537334 145.553123 
L 296.556795 145.553123 
L 296.556795 153.614507 
L 111.537334 153.614507 
z
" clip-path="url(#p01572695cc)" style="fill: #e5e2de; stroke: #b8b8b8; stroke-width: 0.6; stroke-linejoin: miter"/>
   </g>
   <g id="patch_25">
    <path d="M 320.655027 147.637964 
L 328.160823 147.637964 
L 328.160823 151.529666 
L 320.655027 151.529666 
z
" clip-path="url(#p01572695cc)" style="fill: #e5988a; opacity: 0.18; stroke: #e5988a; stroke-width: 0.6; stroke-linejoin: miter"/>
   </g>
   <g id="patch_26">
    <path d="M 296.556795 147.637964 
L 328.160823 147.637964 
L 328.160823 151.529666 
L 296.556795 151.529666 
z
" clip-path="url(#p01572695cc)" style="fill: url(#ha04f8ebaf2); opacity: 0.32; stroke: #e5988a; stroke-width: 0.6; stroke-linejoin: miter"/>
   </g>
   <g id="LineCollection_1">
    <path d="M 306.011907 48.955511 
L 306.011907 55.627001 
" clip-path="url(#p01572695cc)" style="fill: none; stroke-dasharray: 0.7,1.155; stroke-dashoffset: 0; stroke: #b8b8b8; stroke-width: 0.7"/>
   </g>
   <g id="LineCollection_2">
    <path d="M 310.288699 62.854448 
L 310.288699 69.525938 
" clip-path="url(#p01572695cc)" style="fill: none; stroke-dasharray: 0.7,1.155; stroke-dashoffset: 0; stroke: #b8b8b8; stroke-width: 0.7"/>
   </g>
   <g id="LineCollection_3">
    <path d="M 225.206657 76.753385 
L 225.206657 83.424875 
" clip-path="url(#p01572695cc)" style="fill: none; stroke-dasharray: 0.7,1.155; stroke-dashoffset: 0; stroke: #b8b8b8; stroke-width: 0.7"/>
   </g>
   <g id="LineCollection_4">
    <path d="M 359.817901 90.652322 
L 359.817901 97.323812 
" clip-path="url(#p01572695cc)" style="fill: none; stroke-dasharray: 0.7,1.155; stroke-dashoffset: 0; stroke: #b8b8b8; stroke-width: 0.7"/>
   </g>
   <g id="LineCollection_5">
    <path d="M 300.890345 104.551259 
L 300.890345 111.222749 
" clip-path="url(#p01572695cc)" style="fill: none; stroke-dasharray: 0.7,1.155; stroke-dashoffset: 0; stroke: #b8b8b8; stroke-width: 0.7"/>
   </g>
   <g id="LineCollection_6">
    <path d="M 365.572852 118.450196 
L 365.572852 125.121686 
" clip-path="url(#p01572695cc)" style="fill: none; stroke-dasharray: 0.7,1.155; stroke-dashoffset: 0; stroke: #b8b8b8; stroke-width: 0.7"/>
   </g>
   <g id="LineCollection_7">
    <path d="M 258.376494 132.349133 
L 258.376494 139.020623 
" clip-path="url(#p01572695cc)" style="fill: none; stroke-dasharray: 0.7,1.155; stroke-dashoffset: 0; stroke: #b8b8b8; stroke-width: 0.7"/>
   </g>
   <g id="LineCollection_8">
    <path d="M 340.328335 146.24807 
L 340.328335 152.91956 
" clip-path="url(#p01572695cc)" style="fill: none; stroke-dasharray: 0.7,1.155; stroke-dashoffset: 0; stroke: #b8b8b8; stroke-width: 0.7"/>
   </g>
   <g id="patch_27">
    <path d="M 57.952172 160.008018 
L 57.952172 42.562 
" style="fill: none; stroke: #000000; stroke-width: 0.75; stroke-linejoin: miter; stroke-linecap: square"/>
   </g>
   <g id="patch_28">
    <path d="M 57.952172 160.008018 
L 390.592172 160.008018 
" style="fill: none; stroke: #000000; stroke-width: 0.75; stroke-linejoin: miter; stroke-linecap: square"/>
   </g>
   <g id="text_10">
    <g id="patch_29">
     <path d="M 391.706572 86.812196 
L 464.875384 86.812196 
L 464.875384 56.792442 
L 391.706572 56.792442 
z
" style="fill: #ffffff; stroke: #d0d0d0; stroke-linejoin: miter"/>
    </g>
    <text style="font-size: 7.9px; font-family: 'Times New Roman', 'DejaVu Serif', 'Computer Modern Roman', serif" transform="translate(393.918572 64.675161)">Objective: $15,101</text>
    <text style="font-size: 7.9px; font-family: 'Times New Roman', 'DejaVu Serif', 'Computer Modern Roman', serif" transform="translate(393.918572 73.785342)">Average stay: 20.20 h</text>
    <text style="font-size: 7.9px; font-family: 'Times New Roman', 'DejaVu Serif', 'Computer Modern Roman', serif" transform="translate(393.918572 82.895524)">Masking rate: 0.0%</text>
   </g>
  </g>
  <g id="axes_2">
   <g id="patch_30">
    <path d="M 57.952172 307.99 
L 390.592172 307.99 
L 390.592172 190.543982 
L 57.952172 190.543982 
z
" style="fill: #ffffff"/>
   </g>
   <g id="matplotlib.axis_3">
    <g id="xtick_8">
     <g id="line2d_31">
      <path d="M 57.952172 307.99 
L 57.952172 190.543982 
" clip-path="url(#p4b8e31c50e)" style="fill: none; stroke: #d8d8d8; stroke-opacity: 0.75; stroke-width: 0.45; stroke-linecap: square"/>
     </g>
     <g id="line2d_32">
      <g>
       <use xlink:href="#m63811fda01" x="57.952172" y="307.99" style="stroke: #000000; stroke-width: 0.8"/>
      </g>
     </g>
     <g id="text_11">
      <text style="font-size: 8.4px; font-family: 'Times New Roman', 'DejaVu Serif', 'Computer Modern Roman', serif; text-anchor: middle" x="57.952172" y="320.82275" transform="rotate(-0 57.952172 320.82275)">0</text>
     </g>
    </g>
    <g id="xtick_9">
     <g id="line2d_33">
      <path d="M 107.990811 307.99 
L 107.990811 190.543982 
" clip-path="url(#p4b8e31c50e)" style="fill: none; stroke: #d8d8d8; stroke-opacity: 0.75; stroke-width: 0.45; stroke-linecap: square"/>
     </g>
     <g id="line2d_34">
      <g>
       <use xlink:href="#m63811fda01" x="107.990811" y="307.99" style="stroke: #000000; stroke-width: 0.8"/>
      </g>
     </g>
     <g id="text_12">
      <text style="font-size: 8.4px; font-family: 'Times New Roman', 'DejaVu Serif', 'Computer Modern Roman', serif; text-anchor: middle" x="107.990811" y="320.82275" transform="rotate(-0 107.990811 320.82275)">5</text>
     </g>
    </g>
    <g id="xtick_10">
     <g id="line2d_35">
      <path d="M 158.02945 307.99 
L 158.02945 190.543982 
" clip-path="url(#p4b8e31c50e)" style="fill: none; stroke: #d8d8d8; stroke-opacity: 0.75; stroke-width: 0.45; stroke-linecap: square"/>
     </g>
     <g id="line2d_36">
      <g>
       <use xlink:href="#m63811fda01" x="158.02945" y="307.99" style="stroke: #000000; stroke-width: 0.8"/>
      </g>
     </g>
     <g id="text_13">
      <text style="font-size: 8.4px; font-family: 'Times New Roman', 'DejaVu Serif', 'Computer Modern Roman', serif; text-anchor: middle" x="158.02945" y="320.82275" transform="rotate(-0 158.02945 320.82275)">10</text>
     </g>
    </g>
    <g id="xtick_11">
     <g id="line2d_37">
      <path d="M 208.068089 307.99 
L 208.068089 190.543982 
" clip-path="url(#p4b8e31c50e)" style="fill: none; stroke: #d8d8d8; stroke-opacity: 0.75; stroke-width: 0.45; stroke-linecap: square"/>
     </g>
     <g id="line2d_38">
      <g>
       <use xlink:href="#m63811fda01" x="208.068089" y="307.99" style="stroke: #000000; stroke-width: 0.8"/>
      </g>
     </g>
     <g id="text_14">
      <text style="font-size: 8.4px; font-family: 'Times New Roman', 'DejaVu Serif', 'Computer Modern Roman', serif; text-anchor: middle" x="208.068089" y="320.82275" transform="rotate(-0 208.068089 320.82275)">15</text>
     </g>
    </g>
    <g id="xtick_12">
     <g id="line2d_39">
      <path d="M 258.106729 307.99 
L 258.106729 190.543982 
" clip-path="url(#p4b8e31c50e)" style="fill: none; stroke: #d8d8d8; stroke-opacity: 0.75; stroke-width: 0.45; stroke-linecap: square"/>
     </g>
     <g id="line2d_40">
      <g>
       <use xlink:href="#m63811fda01" x="258.106729" y="307.99" style="stroke: #000000; stroke-width: 0.8"/>
      </g>
     </g>
     <g id="text_15">
      <text style="font-size: 8.4px; font-family: 'Times New Roman', 'DejaVu Serif', 'Computer Modern Roman', serif; text-anchor: middle" x="258.106729" y="320.82275" transform="rotate(-0 258.106729 320.82275)">20</text>
     </g>
    </g>
    <g id="xtick_13">
     <g id="line2d_41">
      <path d="M 308.145368 307.99 
L 308.145368 190.543982 
" clip-path="url(#p4b8e31c50e)" style="fill: none; stroke: #d8d8d8; stroke-opacity: 0.75; stroke-width: 0.45; stroke-linecap: square"/>
     </g>
     <g id="line2d_42">
      <g>
       <use xlink:href="#m63811fda01" x="308.145368" y="307.99" style="stroke: #000000; stroke-width: 0.8"/>
      </g>
     </g>
     <g id="text_16">
      <text style="font-size: 8.4px; font-family: 'Times New Roman', 'DejaVu Serif', 'Computer Modern Roman', serif; text-anchor: middle" x="308.145368" y="320.82275" transform="rotate(-0 308.145368 320.82275)">25</text>
     </g>
    </g>
    <g id="xtick_14">
     <g id="line2d_43">
      <path d="M 358.184007 307.99 
L 358.184007 190.543982 
" clip-path="url(#p4b8e31c50e)" style="fill: none; stroke: #d8d8d8; stroke-opacity: 0.75; stroke-width: 0.45; stroke-linecap: square"/>
     </g>
     <g id="line2d_44">
      <g>
       <use xlink:href="#m63811fda01" x="358.184007" y="307.99" style="stroke: #000000; stroke-width: 0.8"/>
      </g>
     </g>
     <g id="text_17">
      <text style="font-size: 8.4px; font-family: 'Times New Roman', 'DejaVu Serif', 'Computer Modern Roman', serif; text-anchor: middle" x="358.184007" y="320.82275" transform="rotate(-0 358.184007 320.82275)">30</text>
     </g>
    </g>
    <g id="text_18">
     <text style="font-size: 8.8px; font-family: 'Times New Roman', 'DejaVu Serif', 'Computer Modern Roman', serif; text-anchor: middle" x="224.272172" y="337.730062" transform="rotate(-0 224.272172 337.730062)">Time (hours)</text>
    </g>
   </g>
   <g id="matplotlib.axis_4">
    <g id="ytick_9">
     <g id="line2d_45">
      <path d="M 57.952172 200.273238 
L 390.592172 200.273238 
" clip-path="url(#p4b8e31c50e)" style="fill: none; stroke: #d8d8d8; stroke-opacity: 0.75; stroke-width: 0.45; stroke-linecap: square"/>
     </g>
     <g id="line2d_46">
      <g>
       <use xlink:href="#mfa871eb0bf" x="57.952172" y="200.273238" style="stroke: #000000; stroke-width: 0.8"/>
      </g>
     </g>
     <g id="text_19">
      <text style="font-size: 8.4px; font-family: 'Times New Roman', 'DejaVu Serif', 'Computer Modern Roman', serif; text-anchor: end" x="50.952172" y="203.181738" transform="rotate(-0 50.952172 203.181738)">1 - Type A</text>
     </g>
    </g>
    <g id="ytick_10">
     <g id="line2d_47">
      <path d="M 57.952172 214.172175 
L 390.592172 214.172175 
" clip-path="url(#p4b8e31c50e)" style="fill: none; stroke: #d8d8d8; stroke-opacity: 0.75; stroke-width: 0.45; stroke-linecap: square"/>
     </g>
     <g id="line2d_48">
      <g>
       <use xlink:href="#mfa871eb0bf" x="57.952172" y="214.172175" style="stroke: #000000; stroke-width: 0.8"/>
      </g>
     </g>
     <g id="text_20">
      <text style="font-size: 8.4px; font-family: 'Times New Roman', 'DejaVu Serif', 'Computer Modern Roman', serif; text-anchor: end" x="50.952172" y="217.080675" transform="rotate(-0 50.952172 217.080675)">2 - Type B</text>
     </g>
    </g>
    <g id="ytick_11">
     <g id="line2d_49">
      <path d="M 57.952172 228.071112 
L 390.592172 228.071112 
" clip-path="url(#p4b8e31c50e)" style="fill: none; stroke: #d8d8d8; stroke-opacity: 0.75; stroke-width: 0.45; stroke-linecap: square"/>
     </g>
     <g id="line2d_50">
      <g>
       <use xlink:href="#mfa871eb0bf" x="57.952172" y="228.071112" style="stroke: #000000; stroke-width: 0.8"/>
      </g>
     </g>
     <g id="text_21">
      <text style="font-size: 8.4px; font-family: 'Times New Roman', 'DejaVu Serif', 'Computer Modern Roman', serif; text-anchor: end" x="50.952172" y="230.979612" transform="rotate(-0 50.952172 230.979612)">3 - Type A</text>
     </g>
    </g>
    <g id="ytick_12">
     <g id="line2d_51">
      <path d="M 57.952172 241.970049 
L 390.592172 241.970049 
" clip-path="url(#p4b8e31c50e)" style="fill: none; stroke: #d8d8d8; stroke-opacity: 0.75; stroke-width: 0.45; stroke-linecap: square"/>
     </g>
     <g id="line2d_52">
      <g>
       <use xlink:href="#mfa871eb0bf" x="57.952172" y="241.970049" style="stroke: #000000; stroke-width: 0.8"/>
      </g>
     </g>
     <g id="text_22">
      <text style="font-size: 8.4px; font-family: 'Times New Roman', 'DejaVu Serif', 'Computer Modern Roman', serif; text-anchor: end" x="50.952172" y="244.878549" transform="rotate(-0 50.952172 244.878549)">4 - Type B</text>
     </g>
    </g>
    <g id="ytick_13">
     <g id="line2d_53">
      <path d="M 57.952172 255.868986 
L 390.592172 255.868986 
" clip-path="url(#p4b8e31c50e)" style="fill: none; stroke: #d8d8d8; stroke-opacity: 0.75; stroke-width: 0.45; stroke-linecap: square"/>
     </g>
     <g id="line2d_54">
      <g>
       <use xlink:href="#mfa871eb0bf" x="57.952172" y="255.868986" style="stroke: #000000; stroke-width: 0.8"/>
      </g>
     </g>
     <g id="text_23">
      <text style="font-size: 8.4px; font-family: 'Times New Roman', 'DejaVu Serif', 'Computer Modern Roman', serif; text-anchor: end" x="50.952172" y="258.777486" transform="rotate(-0 50.952172 258.777486)">5 - Type C</text>
     </g>
    </g>
    <g id="ytick_14">
     <g id="line2d_55">
      <path d="M 57.952172 269.767923 
L 390.592172 269.767923 
" clip-path="url(#p4b8e31c50e)" style="fill: none; stroke: #d8d8d8; stroke-opacity: 0.75; stroke-width: 0.45; stroke-linecap: square"/>
     </g>
     <g id="line2d_56">
      <g>
       <use xlink:href="#mfa871eb0bf" x="57.952172" y="269.767923" style="stroke: #000000; stroke-width: 0.8"/>
      </g>
     </g>
     <g id="text_24">
      <text style="font-size: 8.4px; font-family: 'Times New Roman', 'DejaVu Serif', 'Computer Modern Roman', serif; text-anchor: end" x="50.952172" y="272.676423" transform="rotate(-0 50.952172 272.676423)">6 - Type A</text>
     </g>
    </g>
    <g id="ytick_15">
     <g id="line2d_57">
      <path d="M 57.952172 283.66686 
L 390.592172 283.66686 
" clip-path="url(#p4b8e31c50e)" style="fill: none; stroke: #d8d8d8; stroke-opacity: 0.75; stroke-width: 0.45; stroke-linecap: square"/>
     </g>
     <g id="line2d_58">
      <g>
       <use xlink:href="#mfa871eb0bf" x="57.952172" y="283.66686" style="stroke: #000000; stroke-width: 0.8"/>
      </g>
     </g>
     <g id="text_25">
      <text style="font-size: 8.4px; font-family: 'Times New Roman', 'DejaVu Serif', 'Computer Modern Roman', serif; text-anchor: end" x="50.952172" y="286.57536" transform="rotate(-0 50.952172 286.57536)">7 - Type B</text>
     </g>
    </g>
    <g id="ytick_16">
     <g id="line2d_59">
      <path d="M 57.952172 297.565797 
L 390.592172 297.565797 
" clip-path="url(#p4b8e31c50e)" style="fill: none; stroke: #d8d8d8; stroke-opacity: 0.75; stroke-width: 0.45; stroke-linecap: square"/>
     </g>
     <g id="line2d_60">
      <g>
       <use xlink:href="#mfa871eb0bf" x="57.952172" y="297.565797" style="stroke: #000000; stroke-width: 0.8"/>
      </g>
     </g>
     <g id="text_26">
      <text style="font-size: 8.4px; font-family: 'Times New Roman', 'DejaVu Serif', 'Computer Modern Roman', serif; text-anchor: end" x="50.952172" y="300.474297" transform="rotate(-0 50.952172 300.474297)">8 - Type C</text>
     </g>
    </g>
    <g id="text_27">
     <text style="font-size: 9.5px; font-family: 'Times New Roman', 'DejaVu Serif', 'Computer Modern Roman', serif; text-anchor: middle" x="9.476563" y="249.266991" transform="rotate(-90 9.476563 249.266991)">Vessel order / type</text>
    </g>
   </g>
   <g id="patch_31">
    <path d="M 69.96643 196.242546 
L 269.722189 196.242546 
L 269.722189 204.30393 
L 69.96643 204.30393 
z
" clip-path="url(#p4b8e31c50e)" style="fill: #e5e2de; stroke: #b8b8b8; stroke-width: 0.6; stroke-linejoin: miter"/>
   </g>
   <g id="patch_32">
    <path d="M 70.461832 198.327387 
L 158.02945 198.327387 
L 158.02945 202.219089 
L 70.461832 202.219089 
z
" clip-path="url(#p4b8e31c50e)" style="fill: #7aa974; opacity: 0.18; stroke: #7aa974; stroke-width: 0.6; stroke-linejoin: miter"/>
   </g>
   <g id="patch_33">
    <path d="M 70.461832 198.327387 
L 158.02945 198.327387 
L 158.02945 202.219089 
L 70.461832 202.219089 
z
" clip-path="url(#p4b8e31c50e)" style="fill: #7aa974; opacity: 0.92; stroke: #7aa974; stroke-width: 0.6; stroke-linejoin: miter"/>
   </g>
   <g id="patch_34">
    <path d="M 79.966721 210.141483 
L 263.059771 210.141483 
L 263.059771 218.202867 
L 79.966721 218.202867 
z
" clip-path="url(#p4b8e31c50e)" style="fill: #e5e2de; stroke: #b8b8b8; stroke-width: 0.6; stroke-linejoin: miter"/>
   </g>
   <g id="patch_35">
    <path d="M 80.469559 212.226324 
L 135.512063 212.226324 
L 135.512063 216.118026 
L 80.469559 216.118026 
z
" clip-path="url(#p4b8e31c50e)" style="fill: #7aa974; opacity: 0.18; stroke: #7aa974; stroke-width: 0.6; stroke-linejoin: miter"/>
   </g>
   <g id="patch_36">
    <path d="M 80.469559 212.226324 
L 135.512063 212.226324 
L 135.512063 216.118026 
L 80.469559 216.118026 
z
" clip-path="url(#p4b8e31c50e)" style="fill: #7aa974; opacity: 0.92; stroke: #7aa974; stroke-width: 0.6; stroke-linejoin: miter"/>
   </g>
   <g id="patch_37">
    <path d="M 91.801083 224.04042 
L 170.679833 224.04042 
L 170.679833 232.101804 
L 91.801083 232.101804 
z
" clip-path="url(#p4b8e31c50e)" style="fill: #e5e2de; stroke: #b8b8b8; stroke-width: 0.6; stroke-linejoin: miter"/>
   </g>
   <g id="patch_38">
    <path d="M 135.512063 226.125261 
L 205.566157 226.125261 
L 205.566157 230.016963 
L 135.512063 230.016963 
z
" clip-path="url(#p4b8e31c50e)" style="fill: #7aa974; opacity: 0.18; stroke: #7aa974; stroke-width: 0.6; stroke-linejoin: miter"/>
   </g>
   <g id="patch_39">
    <path d="M 135.512063 226.125261 
L 170.679833 226.125261 
L 170.679833 230.016963 
L 135.512063 230.016963 
z
" clip-path="url(#p4b8e31c50e)" style="fill: #7aa974; opacity: 0.92; stroke: #7aa974; stroke-width: 0.6; stroke-linejoin: miter"/>
   </g>
   <g id="patch_40">
    <path d="M 170.679833 226.125261 
L 205.566157 226.125261 
L 205.566157 230.016963 
L 170.679833 230.016963 
z
" clip-path="url(#p4b8e31c50e)" style="fill: url(#h6b1d0cac98); opacity: 0.32; stroke: #7aa974; stroke-width: 0.6; stroke-linejoin: miter"/>
   </g>
   <g id="patch_41">
    <path d="M 92.589382 237.939357 
L 319.123349 237.939357 
L 319.123349 246.000741 
L 92.589382 246.000741 
z
" clip-path="url(#p4b8e31c50e)" style="fill: #e5e2de; stroke: #b8b8b8; stroke-width: 0.6; stroke-linejoin: miter"/>
   </g>
   <g id="patch_42">
    <path d="M 318.153096 240.024198 
L 360.685939 240.024198 
L 360.685939 243.9159 
L 318.153096 243.9159 
z
" clip-path="url(#p4b8e31c50e)" style="fill: #7aa974; opacity: 0.18; stroke: #7aa974; stroke-width: 0.6; stroke-linejoin: miter"/>
   </g>
   <g id="patch_43">
    <path d="M 318.153096 240.024198 
L 319.123349 240.024198 
L 319.123349 243.9159 
L 318.153096 243.9159 
z
" clip-path="url(#p4b8e31c50e)" style="fill: #7aa974; opacity: 0.92; stroke: #7aa974; stroke-width: 0.6; stroke-linejoin: miter"/>
   </g>
   <g id="patch_44">
    <path d="M 319.123349 240.024198 
L 360.685939 240.024198 
L 360.685939 243.9159 
L 319.123349 243.9159 
z
" clip-path="url(#p4b8e31c50e)" style="fill: url(#h6b1d0cac98); opacity: 0.32; stroke: #7aa974; stroke-width: 0.6; stroke-linejoin: miter"/>
   </g>
   <g id="patch_45">
    <path d="M 102.968186 251.838294 
L 255.077518 251.838294 
L 255.077518 259.899678 
L 102.968186 259.899678 
z
" clip-path="url(#p4b8e31c50e)" style="fill: #e5e2de; stroke: #b8b8b8; stroke-width: 0.6; stroke-linejoin: miter"/>
   </g>
   <g id="patch_46">
    <path d="M 102.986947 253.923135 
L 110.492743 253.923135 
L 110.492743 257.814837 
L 102.986947 257.814837 
z
" clip-path="url(#p4b8e31c50e)" style="fill: #e5988a; opacity: 0.18; stroke: #e5988a; stroke-width: 0.6; stroke-linejoin: miter"/>
   </g>
   <g id="patch_47">
    <path d="M 102.986947 253.923135 
L 110.492743 253.923135 
L 110.492743 257.814837 
L 102.986947 257.814837 
z
" clip-path="url(#p4b8e31c50e)" style="fill: #e5988a; opacity: 0.92; stroke: #e5988a; stroke-width: 0.6; stroke-linejoin: miter"/>
   </g>
   <g id="patch_48">
    <path d="M 108.646069 265.737232 
L 328.016405 265.737232 
L 328.016405 273.798615 
L 108.646069 273.798615 
z
" clip-path="url(#p4b8e31c50e)" style="fill: #e5e2de; stroke: #b8b8b8; stroke-width: 0.6; stroke-linejoin: miter"/>
   </g>
   <g id="patch_49">
    <path d="M 293.133776 267.822072 
L 365.689803 267.822072 
L 365.689803 271.713774 
L 293.133776 271.713774 
z
" clip-path="url(#p4b8e31c50e)" style="fill: #7aa974; opacity: 0.18; stroke: #7aa974; stroke-width: 0.6; stroke-linejoin: miter"/>
   </g>
   <g id="patch_50">
    <path d="M 293.133776 267.822072 
L 328.016405 267.822072 
L 328.016405 271.713774 
L 293.133776 271.713774 
z
" clip-path="url(#p4b8e31c50e)" style="fill: #7aa974; opacity: 0.92; stroke: #7aa974; stroke-width: 0.6; stroke-linejoin: miter"/>
   </g>
   <g id="patch_51">
    <path d="M 328.016405 267.822072 
L 365.689803 267.822072 
L 365.689803 271.713774 
L 328.016405 271.713774 
z
" clip-path="url(#p4b8e31c50e)" style="fill: url(#h6b1d0cac98); opacity: 0.32; stroke: #7aa974; stroke-width: 0.6; stroke-linejoin: miter"/>
   </g>
   <g id="patch_52">
    <path d="M 110.587457 279.636169 
L 204.365334 279.636169 
L 204.365334 287.697552 
L 110.587457 287.697552 
z
" clip-path="url(#p4b8e31c50e)" style="fill: #e5e2de; stroke: #b8b8b8; stroke-width: 0.6; stroke-linejoin: miter"/>
   </g>
   <g id="patch_53">
    <path d="M 158.02945 281.721009 
L 200.562293 281.721009 
L 200.562293 285.612711 
L 158.02945 285.612711 
z
" clip-path="url(#p4b8e31c50e)" style="fill: #7aa974; opacity: 0.18; stroke: #7aa974; stroke-width: 0.6; stroke-linejoin: miter"/>
   </g>
   <g id="patch_54">
    <path d="M 158.02945 281.721009 
L 200.562293 281.721009 
L 200.562293 285.612711 
L 158.02945 285.612711 
z
" clip-path="url(#p4b8e31c50e)" style="fill: #7aa974; opacity: 0.92; stroke: #7aa974; stroke-width: 0.6; stroke-linejoin: miter"/>
   </g>
   <g id="patch_55">
    <path d="M 111.537334 293.535106 
L 296.556795 293.535106 
L 296.556795 301.596489 
L 111.537334 301.596489 
z
" clip-path="url(#p4b8e31c50e)" style="fill: #e5e2de; stroke: #b8b8b8; stroke-width: 0.6; stroke-linejoin: miter"/>
   </g>
   <g id="patch_56">
    <path d="M 333.164687 295.619946 
L 340.670483 295.619946 
L 340.670483 299.511648 
L 333.164687 299.511648 
z
" clip-path="url(#p4b8e31c50e)" style="fill: #e5988a; opacity: 0.18; stroke: #e5988a; stroke-width: 0.6; stroke-linejoin: miter"/>
   </g>
   <g id="patch_57">
    <path d="M 296.556795 295.619946 
L 340.670483 295.619946 
L 340.670483 299.511648 
L 296.556795 299.511648 
z
" clip-path="url(#p4b8e31c50e)" style="fill: url(#ha04f8ebaf2); opacity: 0.32; stroke: #e5988a; stroke-width: 0.6; stroke-linejoin: miter"/>
   </g>
   <g id="LineCollection_9">
    <path d="M 306.011907 196.937493 
L 306.011907 203.608983 
" clip-path="url(#p4b8e31c50e)" style="fill: none; stroke-dasharray: 0.7,1.155; stroke-dashoffset: 0; stroke: #b8b8b8; stroke-width: 0.7"/>
   </g>
   <g id="LineCollection_10">
    <path d="M 310.288699 210.83643 
L 310.288699 217.50792 
" clip-path="url(#p4b8e31c50e)" style="fill: none; stroke-dasharray: 0.7,1.155; stroke-dashoffset: 0; stroke: #b8b8b8; stroke-width: 0.7"/>
   </g>
   <g id="LineCollection_11">
    <path d="M 225.206657 224.735367 
L 225.206657 231.406857 
" clip-path="url(#p4b8e31c50e)" style="fill: none; stroke-dasharray: 0.7,1.155; stroke-dashoffset: 0; stroke: #b8b8b8; stroke-width: 0.7"/>
   </g>
   <g id="LineCollection_12">
    <path d="M 359.817901 238.634304 
L 359.817901 245.305794 
" clip-path="url(#p4b8e31c50e)" style="fill: none; stroke-dasharray: 0.7,1.155; stroke-dashoffset: 0; stroke: #b8b8b8; stroke-width: 0.7"/>
   </g>
   <g id="LineCollection_13">
    <path d="M 300.890345 252.533241 
L 300.890345 259.204731 
" clip-path="url(#p4b8e31c50e)" style="fill: none; stroke-dasharray: 0.7,1.155; stroke-dashoffset: 0; stroke: #b8b8b8; stroke-width: 0.7"/>
   </g>
   <g id="LineCollection_14">
    <path d="M 365.572852 266.432178 
L 365.572852 273.103668 
" clip-path="url(#p4b8e31c50e)" style="fill: none; stroke-dasharray: 0.7,1.155; stroke-dashoffset: 0; stroke: #b8b8b8; stroke-width: 0.7"/>
   </g>
   <g id="LineCollection_15">
    <path d="M 258.376494 280.331115 
L 258.376494 287.002605 
" clip-path="url(#p4b8e31c50e)" style="fill: none; stroke-dasharray: 0.7,1.155; stroke-dashoffset: 0; stroke: #b8b8b8; stroke-width: 0.7"/>
   </g>
   <g id="LineCollection_16">
    <path d="M 340.328335 294.230052 
L 340.328335 300.901542 
" clip-path="url(#p4b8e31c50e)" style="fill: none; stroke-dasharray: 0.7,1.155; stroke-dashoffset: 0; stroke: #b8b8b8; stroke-width: 0.7"/>
   </g>
   <g id="patch_58">
    <path d="M 57.952172 307.99 
L 57.952172 190.543982 
" style="fill: none; stroke: #000000; stroke-width: 0.75; stroke-linejoin: miter; stroke-linecap: square"/>
   </g>
   <g id="patch_59">
    <path d="M 57.952172 307.99 
L 390.592172 307.99 
" style="fill: none; stroke: #000000; stroke-width: 0.75; stroke-linejoin: miter; stroke-linecap: square"/>
   </g>
   <g id="text_28">
    <g id="patch_60">
     <path d="M 391.706572 234.794178 
L 464.875384 234.794178 
L 464.875384 204.774425 
L 391.706572 204.774425 
z
" style="fill: #ffffff; stroke: #d0d0d0; stroke-linejoin: miter"/>
    </g>
    <text style="font-size: 7.9px; font-family: 'Times New Roman', 'DejaVu Serif', 'Computer Modern Roman', serif" transform="translate(393.918572 212.657144)">Objective: $7,981</text>
    <text style="font-size: 7.9px; font-family: 'Times New Roman', 'DejaVu Serif', 'Computer Modern Roman', serif" transform="translate(393.918572 221.767325)">Average stay: 18.70 h</text>
    <text style="font-size: 7.9px; font-family: 'Times New Roman', 'DejaVu Serif', 'Computer Modern Roman', serif" transform="translate(393.918572 230.877506)">Masking rate: 62.6%</text>
   </g>
  </g>
  <g id="text_29">
   <text style="font-size: 8.7px; font-family: 'Times New Roman', 'DejaVu Serif', 'Computer Modern Roman', serif; text-anchor: middle" x="224.272172" y="173.18508" transform="rotate(-0 224.272172 173.18508)">(a) Sequential operation</text>
  </g>
  <g id="text_30">
   <text style="font-size: 8.7px; font-family: 'Times New Roman', 'DejaVu Serif', 'Computer Modern Roman', serif; text-anchor: middle" x="224.272172" y="351.674262" transform="rotate(-0 224.272172 351.674262)">(b) SIMOPS operation</text>
  </g>
  <g id="legend_1">
   <g id="patch_61">
    <path d="M 90.578391 28.409344 
L 388.205953 28.409344 
L 388.205953 2.88 
L 90.578391 2.88 
z
" style="fill: #ffffff; opacity: 0.96; stroke: #d0d0d0; stroke-linejoin: miter"/>
   </g>
   <g id="patch_62">
    <path d="M 94.133391 11.965 
L 109.143391 11.965 
L 109.143391 6.435 
L 94.133391 6.435 
z
" style="fill: #e5e2de; stroke: #b8b8b8; stroke-linejoin: miter"/>
   </g>
   <g id="text_31">
    <text style="font-size: 7.9px; font-family: 'Times New Roman', 'DejaVu Serif', 'Computer Modern Roman', serif; text-anchor: start" x="113.883391" y="11.965" transform="rotate(-0 113.883391 11.965)">Cargo-handling window</text>
   </g>
   <g id="patch_63">
    <path d="M 94.133391 23.149672 
L 109.143391 23.149672 
L 109.143391 17.619672 
L 94.133391 17.619672 
z
" style="fill: #7aa974; stroke: #7aa974; stroke-linejoin: miter"/>
   </g>
   <g id="text_32">
    <text style="font-size: 7.9px; font-family: 'Times New Roman', 'DejaVu Serif', 'Computer Modern Roman', serif; text-anchor: start" x="113.883391" y="23.149672" transform="rotate(-0 113.883391 23.149672)">Shore power</text>
   </g>
   <g id="patch_64">
    <path d="M 197.869031 11.965 
L 212.879031 11.965 
L 212.879031 6.435 
L 197.869031 6.435 
z
" style="fill: #e5988a; stroke: #e5988a; stroke-linejoin: miter"/>
   </g>
   <g id="text_33">
    <text style="font-size: 7.9px; font-family: 'Times New Roman', 'DejaVu Serif', 'Computer Modern Roman', serif; text-anchor: start" x="217.619031" y="11.965" transform="rotate(-0 217.619031 11.965)">Battery swap</text>
   </g>
   <g id="patch_65">
    <path d="M 197.869031 23.149672 
L 212.879031 23.149672 
L 212.879031 17.619672 
L 197.869031 17.619672 
z
" style="fill: url(#h23ab1c8f47); stroke: #666666; stroke-linejoin: miter"/>
   </g>
   <g id="text_34">
    <text style="font-size: 7.9px; font-family: 'Times New Roman', 'DejaVu Serif', 'Computer Modern Roman', serif; text-anchor: start" x="217.619031" y="23.149672" transform="rotate(-0 217.619031 23.149672)">Exposed service segment</text>
   </g>
   <g id="line2d_61">
    <path d="M 304.584453 9.2 
L 312.089453 9.2 
L 319.594453 9.2 
" style="fill: none; stroke-dasharray: 0.9,1.485; stroke-dashoffset: 0; stroke: #b8b8b8; stroke-width: 0.9"/>
   </g>
   <g id="text_35">
    <text style="font-size: 7.9px; font-family: 'Times New Roman', 'DejaVu Serif', 'Computer Modern Roman', serif; text-anchor: start" x="324.334453" y="11.965" transform="rotate(-0 324.334453 11.965)">Departure deadline</text>
   </g>
  </g>
 </g>
 <defs>
  <clipPath id="p01572695cc">
   <rect x="57.952172" y="42.562" width="332.64" height="117.446018"/>
  </clipPath>
  <clipPath id="p4b8e31c50e">
   <rect x="57.952172" y="190.543982" width="332.64" height="117.446018"/>
  </clipPath>
 </defs>
 <defs>
  <pattern id="ha04f8ebaf2" patternUnits="userSpaceOnUse" x="0" y="0" width="72" height="72">
   <rect x="0" y="0" width="73" height="73" fill="#e5988a"/>
   <path d="M -36 36 
L 36 -36 
M -33 39 
L 39 -33 
M -30 42 
L 42 -30 
M -27 45 
L 45 -27 
M -24 48 
L 48 -24 
M -21 51 
L 51 -21 
M -18 54 
L 54 -18 
M -15 57 
L 57 -15 
M -12 60 
L 60 -12 
M -9 63 
L 63 -9 
M -6 66 
L 66 -6 
M -3 69 
L 69 -3 
M 0 72 
L 72 0 
M 3 75 
L 75 3 
M 6 78 
L 78 6 
M 9 81 
L 81 9 
M 12 84 
L 84 12 
M 15 87 
L 87 15 
M 18 90 
L 90 18 
M 21 93 
L 93 21 
M 24 96 
L 96 24 
M 27 99 
L 99 27 
M 30 102 
L 102 30 
M 33 105 
L 105 33 
M 36 108 
L 108 36 
" style="fill: #e5988a; stroke: #e5988a; stroke-width: 1.0; stroke-linecap: butt; stroke-linejoin: miter; stroke-opacity: 0.32"/>
  </pattern>
  <pattern id="h6b1d0cac98" patternUnits="userSpaceOnUse" x="0" y="0" width="72" height="72">
   <rect x="0" y="0" width="73" height="73" fill="#7aa974"/>
   <path d="M -36 36 
L 36 -36 
M -33 39 
L 39 -33 
M -30 42 
L 42 -30 
M -27 45 
L 45 -27 
M -24 48 
L 48 -24 
M -21 51 
L 51 -21 
M -18 54 
L 54 -18 
M -15 57 
L 57 -15 
M -12 60 
L 60 -12 
M -9 63 
L 63 -9 
M -6 66 
L 66 -6 
M -3 69 
L 69 -3 
M 0 72 
L 72 0 
M 3 75 
L 75 3 
M 6 78 
L 78 6 
M 9 81 
L 81 9 
M 12 84 
L 84 12 
M 15 87 
L 87 15 
M 18 90 
L 90 18 
M 21 93 
L 93 21 
M 24 96 
L 96 24 
M 27 99 
L 99 27 
M 30 102 
L 102 30 
M 33 105 
L 105 33 
M 36 108 
L 108 36 
" style="fill: #7aa974; stroke: #7aa974; stroke-width: 1.0; stroke-linecap: butt; stroke-linejoin: miter; stroke-opacity: 0.32"/>
  </pattern>
  <pattern id="h23ab1c8f47" patternUnits="userSpaceOnUse" x="0" y="0" width="72" height="72">
   <rect x="0" y="0" width="73" height="73" fill="#ffffff"/>
   <path d="M -36 36 
L 36 -36 
M -33 39 
L 39 -33 
M -30 42 
L 42 -30 
M -27 45 
L 45 -27 
M -24 48 
L 48 -24 
M -21 51 
L 51 -21 
M -18 54 
L 54 -18 
M -15 57 
L 57 -15 
M -12 60 
L 60 -12 
M -9 63 
L 63 -9 
M -6 66 
L 66 -6 
M -3 69 
L 69 -3 
M 0 72 
L 72 0 
M 3 75 
L 75 3 
M 6 78 
L 78 6 
M 9 81 
L 81 9 
M 12 84 
L 84 12 
M 15 87 
L 87 15 
M 18 90 
L 90 18 
M 21 93 
L 93 21 
M 24 96 
L 96 24 
M 27 99 
L 99 27 
M 30 102 
L 102 30 
M 33 105 
L 105 33 
M 36 108 
L 108 36 
" style="fill: #666666; stroke: #666666; stroke-width: 1.0; stroke-linecap: butt; stroke-linejoin: miter"/>
  </pattern>
 </defs>
</svg>
